<svg xmlns="http://www.w3.org/2000/svg" width="20" height="20" viewBox="0 0 20 20" fill="none"><path d="M3.95833 1.5625C3.48868 1.5625 3.03826 1.74907 2.70617 2.08117C2.37407 2.41326 2.1875 2.86368 2.1875 3.33333C2.1875 3.80299 2.37407 4.25341 2.70617 4.5855C3.03826 4.9176 3.48868 5.10417 3.95833 5.10417C4.42799 5.10417 4.87841 4.9176 5.2105 4.5855C5.5426 4.25341 5.72917 3.80299 5.72917 3.33333C5.72917 2.86368 5.5426 2.41326 5.2105 2.08117C4.87841 1.74907 4.42799 1.5625 3.95833 1.5625ZM2.29167 6.5625C2.26404 6.5625 2.23754 6.57347 2.21801 6.59301C2.19847 6.61254 2.1875 6.63904 2.1875 6.66667V17.5C2.1875 17.5575 2.23417 17.6042 2.29167 17.6042H5.625C5.65263 17.6042 5.67912 17.5932 5.69866 17.5737C5.71819 17.5541 5.72917 17.5276 5.72917 17.5V6.66667C5.72917 6.63904 5.71819 6.61254 5.69866 6.59301C5.67912 6.57347 5.65263 6.5625 5.625 6.5625H2.29167ZM7.70833 6.5625C7.68071 6.5625 7.65421 6.57347 7.63468 6.59301C7.61514 6.61254 7.60417 6.63904 7.60417 6.66667V17.5C7.60417 17.5575 7.65083 17.6042 7.70833 17.6042H11.0417C11.0693 17.6042 11.0958 17.5932 11.1153 17.5737C11.1349 17.5541 11.1458 17.5276 11.1458 17.5V11.6667C11.1458 11.2523 11.3105 10.8548 11.6035 10.5618C11.8965 10.2688 12.2939 10.1042 12.7083 10.1042C13.1227 10.1042 13.5202 10.2688 13.8132 10.5618C14.1062 10.8548 14.2708 11.2523 14.2708 11.6667V17.5C14.2708 17.5575 14.3175 17.6042 14.375 17.6042H17.7083C17.736 17.6042 17.7625 17.5932 17.782 17.5737C17.8015 17.5541 17.8125 17.5276 17.8125 17.5V10.3167C17.8125 8.29417 16.0542 6.7125 14.0417 6.895C13.419 6.95168 12.8091 7.10578 12.2342 7.35167L11.1458 7.81833V6.66667C11.1458 6.63904 11.1349 6.61254 11.1153 6.59301C11.0958 6.57347 11.0693 6.5625 11.0417 6.5625H7.70833Z" fill="#25252F"></path></svg>