<svg xmlns="http://www.w3.org/2000/svg" width="20" height="20" viewBox="0 0 20 20" fill="none"><path d="M9.9974 7.29688C9.2791 7.29688 8.59023 7.58222 8.08232 8.09013C7.5744 8.59804 7.28906 9.28691 7.28906 10.0052C7.28906 10.7235 7.5744 11.4124 8.08232 11.9203C8.59023 12.4282 9.2791 12.7135 9.9974 12.7135C10.7157 12.7135 11.4046 12.4282 11.9125 11.9203C12.4204 11.4124 12.7057 10.7235 12.7057 10.0052C12.7057 9.28691 12.4204 8.59804 11.9125 8.09013C11.4046 7.58222 10.7157 7.29688 9.9974 7.29688Z" fill="#25252F"></path><path fill-rule="evenodd" clip-rule="evenodd" d="M5.64168 2.57284C8.53837 2.25176 11.4617 2.25176 14.3583 2.57284C15.9408 2.74951 17.2167 3.99534 17.4025 5.58368C17.746 8.52089 17.746 11.4881 17.4025 14.4253C17.2167 16.0137 15.9408 17.2595 14.3592 17.437C11.4622 17.7582 8.53864 17.7582 5.64168 17.437C4.05918 17.2595 2.78335 16.0137 2.59751 14.4262C2.25395 11.4887 2.25395 8.52117 2.59751 5.58368C2.78335 3.99534 4.05918 2.74951 5.64168 2.57284ZM14.1667 5.00451C13.9457 5.00451 13.7337 5.09231 13.5774 5.24859C13.4211 5.40487 13.3333 5.61683 13.3333 5.83784C13.3333 6.05886 13.4211 6.27082 13.5774 6.4271C13.7337 6.58338 13.9457 6.67118 14.1667 6.67118C14.3877 6.67118 14.5997 6.58338 14.7559 6.4271C14.9122 6.27082 15 6.05886 15 5.83784C15 5.61683 14.9122 5.40487 14.7559 5.24859C14.5997 5.09231 14.3877 5.00451 14.1667 5.00451ZM6.04168 10.0045C6.04168 8.95469 6.45872 7.94788 7.20105 7.20555C7.94338 6.46321 8.9502 6.04618 10 6.04618C11.0498 6.04618 12.0566 6.46321 12.799 7.20555C13.5413 7.94788 13.9583 8.95469 13.9583 10.0045C13.9583 11.0543 13.5413 12.0611 12.799 12.8035C12.0566 13.5458 11.0498 13.9628 10 13.9628C8.9502 13.9628 7.94338 13.5458 7.20105 12.8035C6.45872 12.0611 6.04168 11.0543 6.04168 10.0045Z" fill="#25252F"></path></svg>