<svg xmlns="http://www.w3.org/2000/svg" width="20" height="20" viewBox="0 0 20 20" fill="none"><path d="M9.98643 7.53125C9.33113 7.53125 8.70267 7.79157 8.23931 8.25493C7.77594 8.7183 7.51563 9.34676 7.51562 10.0021C7.51563 10.6574 7.77594 11.2858 8.23931 11.7492C8.70267 12.2125 9.33113 12.4729 9.98643 12.4729C10.6417 12.4729 11.2702 12.2125 11.7336 11.7492C12.1969 11.2858 12.4572 10.6574 12.4572 10.0021C12.4572 9.34676 12.1969 8.7183 11.7336 8.25493C11.2702 7.79157 10.6417 7.53125 9.98643 7.53125Z" fill="#25252F"></path><path fill-rule="evenodd" clip-rule="evenodd" d="M6.01226 3.21969C8.6549 2.92677 11.3218 2.92677 13.9645 3.21969C15.4082 3.38087 16.5721 4.51744 16.7416 5.96647C17.055 8.64608 17.055 11.3531 16.7416 14.0327C16.5721 15.4817 15.4082 16.6183 13.9652 16.7802C11.3223 17.0732 8.65515 17.0732 6.01226 16.7802C4.56855 16.6183 3.40461 15.4817 3.23507 14.0335C2.92164 11.3536 2.92164 8.64634 3.23507 5.96647C3.40461 4.51744 4.56855 3.38087 6.01226 3.21969ZM13.7896 5.4381C13.588 5.4381 13.3946 5.51819 13.252 5.66077C13.1095 5.80334 13.0294 5.99672 13.0294 6.19835C13.0294 6.39998 13.1095 6.59335 13.252 6.73592C13.3946 6.8785 13.588 6.95859 13.7896 6.95859C13.9912 6.95859 14.1846 6.8785 14.3272 6.73592C14.4698 6.59335 14.5499 6.39998 14.5499 6.19835C14.5499 5.99672 14.4698 5.80334 14.3272 5.66077C14.1846 5.51819 13.9912 5.4381 13.7896 5.4381ZM6.37718 9.99959C6.37718 9.04184 6.75764 8.12333 7.43487 7.4461C8.1121 6.76887 9.03062 6.38841 9.98836 6.38841C10.9461 6.38841 11.8646 6.76887 12.5419 7.4461C13.2191 8.12333 13.5995 9.04184 13.5995 9.99959C13.5995 10.9573 13.2191 11.8759 12.5419 12.5531C11.8646 13.2303 10.9461 13.6108 9.98836 13.6108C9.03062 13.6108 8.1121 13.2303 7.43487 12.5531C6.75764 11.8759 6.37718 10.9573 6.37718 9.99959Z" fill="#25252F"></path></svg>