<svg xmlns="http://www.w3.org/2000/svg" width="20" height="20" viewBox="0 0 20 20" fill="none"><path d="M18.2047 4.90066C17.6008 5.17517 16.9498 5.35556 16.2753 5.44184C16.9655 5.02615 17.4988 4.36733 17.7498 3.57517C17.0988 3.96733 16.3773 4.24184 15.6165 4.3987C14.9969 3.72419 14.1263 3.33203 13.1381 3.33203C11.2949 3.33203 9.78903 4.83791 9.78903 6.69674C9.78903 6.9634 9.8204 7.22223 9.87531 7.46536C7.08315 7.32419 4.59687 5.98301 2.94197 3.95164C2.65178 4.44576 2.48707 5.02615 2.48707 5.63791C2.48707 6.80654 3.07531 7.84184 3.98511 8.43007C3.42825 8.43007 2.9106 8.27321 2.4557 8.03791V8.06144C2.4557 9.69281 3.61648 11.0575 5.15374 11.3634C4.66019 11.4985 4.14205 11.5173 3.64001 11.4183C3.85304 12.0869 4.27024 12.672 4.83297 13.0912C5.3957 13.5104 6.07566 13.7428 6.77727 13.7556C5.58796 14.6971 4.11373 15.206 2.59687 15.1987C2.33021 15.1987 2.06354 15.183 1.79688 15.1516C3.28707 16.1085 5.05962 16.6654 6.95766 16.6654C13.1381 16.6654 16.5341 11.536 16.5341 7.08889C16.5341 6.93987 16.5341 6.7987 16.5263 6.64968C17.1851 6.17909 17.7498 5.58301 18.2047 4.90066Z" fill="#25252F"></path></svg>